<svg id="Layer_1" data-name="Layer 1" xmlns="http://www.w3.org/2000/svg" viewBox="0 0 102.069 17.186">
  <defs>
    <style>
      .cls-1 {
        fill: #0084dd;
      }

      .cls-2 {
        fill: #d6d9e3;
      }
    </style>
  </defs>
  <path class="cls-1" d="M9.5,13.11,3.916,17.186l2.15-6.57L.466,6.564l6.913.015L9.5,0l2.122,6.58,6.913-.016-5.602,4.052,2.151,6.57Zm21,0-5.584,4.076,2.15-6.57L21.465,6.564l6.913.015L30.5,0l2.122,6.58,6.913-.016-5.602,4.052,2.151,6.57Zm21,0-5.584,4.076,2.15-6.57L42.465,6.564l6.913.015L51.5,0l2.122,6.58,6.913-.016-5.602,4.052,2.151,6.57Zm21,0-5.584,4.076,2.15-6.57L63.465,6.564l6.913.015L72.5,0l2.122,6.58,6.913-.016-5.602,4.052,2.151,6.57Z" transform="translate(-0.466)"/>
  <path class="cls-2" d="M93.5,13.11l-5.584,4.076,2.15-6.57L84.465,6.564l6.913.015L93.5,0l2.122,6.58,6.913-.016-5.602,4.052,2.151,6.57Z" transform="translate(-0.466)"/>
  <path class="cls-1" d="M96,6.579v8.356L93.5,13.11l-5.584,4.076,2.15-6.57L84.465,6.564l6.913.015L93.5,0l2.122,6.58Z" transform="translate(-0.466)"/>
</svg>
